{"title":"Kenau 2014 DVD9rip Dutch Klam","uid":10591578,"size":1471400467,"categoryP":"video","categoryS":"movies","magnet":"?xt=urn:btih:fb70ae6c5c4078f9c7f769b08f90b45226dab0ec&amp;dn=Kenau+2014+DVD9rip+Dutch+Klam&amp;tr=udp%3A%2F%2Ftracker.openbittorrent.com%3A80&amp;tr=udp%3A%2F%2Fopen.demonii.com%3A1337&amp;tr=udp%3A%2F%2Ftracker.coppersurfer.tk%3A6969&amp;tr=udp%3A%2F%2Fexodus.desync.com%3A6969","seeders":1,"leechers":0,"uploader":"Klambake","files":-1,"time":1405804595,"description":" &lt;a href=&quot;http://i.imgur.com/nw31gIJ.jpg&quot; rel=&quot;nofollow&quot; target=&quot;_NEW&quot;&gt;http://i.imgur.com/nw31gIJ.jpg&lt;/a&gt;\n\nWith: Monic Hendrickx, Barry Atsma and Lisa Smit\n\nHistorisch epos over het leven van Kenau Hasselaar. Hasselaar gaf tijdens de Spaanse belegering van de stad Haarlem in 1572 leiding aan een leger dat exclusief uit vrouwen bestond. Ze werd daarbij bovenal gemotiveerd door de executie van haar jongste dochter en de angst dat dit ook met haar andere dochter zou gebeuren.\n\nDutch spoken, with soft English Subs included!\nWhile she fights a heroic battle against the Spanish besieger with her female army, Kenau, driven by hate and sorrow of the execution of her youngest daughter, is threatened to also lose ...\n &lt;a href=&quot;\nhttp://www.imdb.com/title/tt2512170&quot; rel=&quot;nofollow&quot; target=&quot;_NEW&quot;&gt;\nhttp://www.imdb.com/title/tt2512170&lt;/a&gt;\t\n\n--------------------- Dutch Friends 4ever ---------------------\n---------------------------------------------------------------\n- Bezoek ook eens mijn vrienden op: &lt;a href=&quot; http://www.Film-Test.nl&quot; rel=&quot;nofollow&quot; target=&quot;_NEW&quot;&gt; http://www.Film-Test.nl&lt;/a&gt; --\n----- voor mijn Nederlandse Sync. ondertitels ---- en meer ----\n------- http://www.Film-Test.nl ---- Over Films en meer -------\n---------------------------------------------------------------\n &lt;a href=&quot;\nhttp://i.imgur.com/7C70GFS.jpg&quot; rel=&quot;nofollow&quot; target=&quot;_NEW&quot;&gt;\nhttp://i.imgur.com/7C70GFS.jpg&lt;/a&gt; &lt;a href=&quot;\nhttp://i.imgur.com/TZgu6s2.jpg&quot; rel=&quot;nofollow&quot; target=&quot;_NEW&quot;&gt;\nhttp://i.imgur.com/TZgu6s2.jpg&lt;/a&gt; &lt;a href=&quot;\nhttp://i.imgur.com/0ZRXRCw.jpg&quot; rel=&quot;nofollow&quot; target=&quot;_NEW&quot;&gt;\nhttp://i.imgur.com/0ZRXRCw.jpg&lt;/a&gt;\n\nGeneral:\n\nComplete name                            : KenauKenau.avi\nFormat                                   : AVI\nFormat/Info                              : Audio Video Interleave\nFile size                                : 1.37 GiB\nDuration                                 : 1h 47mn\nOverall bit rate                         : 1 820 Kbps\n\nVideo:\n\nFormat                                   : MPEG-4 Visual\nFormat profile                           : Simple@L3\nFormat settings, BVOP                    : No\nFormat settings, QPel                    : No\nFormat settings, GMC                     : No warppoints\nFormat settings, Matrix                  : Default (H.263)\nCodec ID                                 : XVID\nCodec ID/Hint                            : XviD\nDuration                                 : 1h 47mn\nBit rate                                 : 1 361 Kbps\nWidth                                    : 720 pixels\nHeight                                   : 304 pixels\nDisplay aspect ratio                     : 2.35:1\nFrame rate                               : 25.000 fps\nColor space                              : YUV\nChroma subsampling                       : 4:2:0\nBit depth                                : 8 bits\nScan type                                : Progressive\nCompression mode                         : Lossy\nBits/(Pixel*Frame)                       : 0.249\nStream size                              : 1.02 GiB (75%)\nWriting library                          : XviD 1.1.2 (UTC 2006-11-01)\n\nAudio:\n\nFormat                                   : AC-3\nFormat/Info                              : Audio Coding 3\nMode extension                           : CM (complete main)\nFormat settings, Endianness              : Big\nCodec ID                                 : 2000\nDuration                                 : 1h 47mn\nSource duration                          : 1h 47mn\nBit rate mode                            : Constant\nBit rate                                 : 448 Kbps\nChannel(s)                               : 6 channels\nChannel positions                        : Front: L C R, Side: L R, LFE\nSampling rate                            : 48.0 KHz\nBit depth                                : 16 bits\nCompression mode                         : Lossy\nStream size                              : 345 MiB (25%)\nAlignment                                : Aligned on interleaves\nInterleave, duration                     : 32 ms (0.80 video frame)\nInterleave, preload duration             : 192 ms\n\n","torrent":{"xt":"urn:btih:fb70ae6c5c4078f9c7f769b08f90b45226dab0ec","amp;dn":"Kenau+2014+DVD9rip+Dutch+Klam","amp;tr":["udp%3A%2F%2Ftracker.openbittorrent.com%3A80","udp%3A%2F%2Fopen.demonii.com%3A1337","udp%3A%2F%2Ftracker.coppersurfer.tk%3A6969","udp%3A%2F%2Fexodus.desync.com%3A6969"],"infoHash":"fb70ae6c5c4078f9c7f769b08f90b45226dab0ec","infoHashBuffer":{"type":"Buffer","data":[251,112,174,108,92,64,120,249,199,247,105,176,143,144,180,82,38,218,176,236]},"announce":[],"urlList":[]}}